<?xml version="1.0" encoding="UTF-8"?>
<svg id="logo" xmlns="http://www.w3.org/2000/svg" viewBox="0 0 3000 1000">
  <defs>
    <style>
      .cls-1 {
        fill: #ffcb05;
        font-family: Pokemon-Classic, 'Pokemon Classic';
        font-size: 340px;
      }

      .cls-2 {
        fill: #f2f2f2;
      }

      .cls-3 {
        letter-spacing: -.11em;
      }

      .cls-4 {
        letter-spacing: -.22em;
      }
    </style>
  </defs>
  <text class="cls-1" transform="translate(1126.35 429.81)"><tspan class="cls-3"><tspan x="0" y="0">Dex</tspan></tspan><tspan class="cls-3" x="0" y="408">M</tspan><tspan class="cls-4" x="345.78" y="408">a</tspan><tspan class="cls-3" x="611.66" y="408">tch</tspan></text>
  <g>
    <path class="cls-2" d="M542.72,593.65c22.62-10.24,41.01-28.76,50.89-51.04,21.38-48.18,1.51-104.84-44.25-129.87-49-26.79-109.93-8.5-136.8,40.63-14.45,26.42-16.55,58.97-4.67,87.19,21.76,51.65,82.12,76.95,134.82,53.09Z"/>
    <path class="cls-2" d="M188.42,644.17c.08,1.51.98,2.25,2.19,3.68,25.54,30.16,53.64,57.72,83.67,83.72,69.96,59.24,144.91,106.79,226.81,148.68,37.75-18.8,73.86-39.43,109.29-61.9,28.38-17.99,55.19-37.43,82.08-57.57,31.07-24.39,60.46-50.38,88.05-78.67,32.01-32.64,60.32-68.3,84.05-107.35,15.2-26.08,28.5-52.41,38.72-81.63-36.18,12.59-72.02,22.6-108.63,30.76-53.04,11.81-106.97,19.8-161.52,24.28-8.08,23.75-22.42,44-41.32,60.12-25.83,22.04-58.23,33.76-92.33,33.07-22.07-.07-43.04-4.98-62.34-15.22-31.68-16.72-56.45-44.11-67.81-78.05-48.17-3.95-95.45-10.59-142.63-20.26-43.25-8.77-84.84-20.14-127.54-34.55,20.08,54.91,50.5,104.7,87.05,149.11.53,1.27,1.35,1.62,2.21,1.78Z"/>
    <path class="cls-2" d="M421.73,386.27c20.08-13.36,47.4-24.36,71.29-24.41l17.67-.03c16.72.89,33.18,5.36,48.18,12.34,8.07,3.76,15.57,7.53,22.56,12.7,8.95,6.62,17.48,13.16,24.61,21.68,10.91,13.05,19.73,27.09,25.71,42.96,1.11,2.94,1.39,6,3.5,8.2,3.8.64,7.01.39,10.83,0,54.64-5.73,108.88-13.98,162.9-26.82,36.23-8.62,71.35-19.49,106.33-31.44,3.95-1.35,7.24-2.48,10.41-4.95,4.15-36.78.6-73.08-9.18-108.67-16.25-59.1-55.71-111.22-109.45-140.75-63.98-35.14-141.36-36.54-206.5-3.71-17.41,8.78-33.02,19.86-47.66,32.86-19.59,17.39-35.53,37.61-49.51,59.55-.59.93-2.02,1.56-2.7,1.49-.54-.05-1.5-.78-2-1.55-12.39-18.97-26.08-36.67-42.21-52.46-44.13-43.21-103.42-65.95-165.35-63.06-82.58,3.86-155.5,54.14-190.38,128.74-22.08,47.21-29.19,96.54-23.77,148.31l18.55,7.18c4.82,1.87,9.3,3.24,14.34,4.86,27.43,8.83,54.53,16.67,82.78,23.27,43.74,10.22,87.46,17.87,131.91,23.49,7.5.95,15.1,1.65,22.52,2.52l7.12.84c4.58.54,8.96,1.55,13.56-.25,9.7-29.62,27.85-55.52,53.93-72.88Z"/>
  </g>
</svg>