<?xml version="1.0" encoding="UTF-8"?>
<svg id="icon_color" xmlns="http://www.w3.org/2000/svg" viewBox="0 0 1000 1000">
  <defs>
    <style>
      .cls-1 {
        fill: #d5d9dd;
      }

      .cls-2 {
        fill: #172027;
      }

      .cls-3 {
        fill: #e62425;
      }

      .cls-4 {
        fill: #f2f2f2;
      }
    </style>
  </defs>
  <path class="cls-2" d="M306.57,70.79c76.16,1.66,145.8,36.81,193.75,96.82,37.11-45.38,86.42-78.32,143.94-90.45,21.73-5.04,43.06-7.3,65.37-6.3,60.2,2.7,112.56,24,157.44,63.37l23.24,23.3c30.05,35.03,50.38,76.68,59.7,122.01,5.09,24.79,7.62,49.26,6.91,74.8-1.13,40.2-7.93,79.66-20.55,117.84-27.12,82.08-75.97,154.1-136.33,215.38-17.07,17.33-34.2,33.68-52.77,49.46-42.05,35.73-86.5,67.88-133.41,97-25.66,15.93-50.96,31.59-77.95,44.86l-35.58,17.5c-37.28-17.79-72.63-37.56-107.56-58.97-49.98-30.65-97.51-64.67-142.01-102.85-33.84-29.03-65.1-60.52-93.1-95.06l-30.55-41.42c-12.73-17.26-22.65-35.35-32.6-54.42-15.34-29.44-27.48-59.83-36.37-91.88-15.27-55.02-19.95-124.33-6.23-178.92,6.55-26.05,15.32-51.5,29.44-74.65l10.14-16.61c1.79-2.94,5.02-5.14,5.12-8.62,2.22-.3,2.47-2.26,3.5-3.48l13.71-16.17c22.84-24.36,49.55-44.74,80.17-58.95,35.29-16.38,73.75-24.44,112.59-23.59ZM420.88,368.18c20.08-13.36,47.4-24.36,71.29-24.41l17.67-.03c16.72.89,33.18,5.36,48.18,12.34,8.07,3.76,15.57,7.53,22.56,12.7,8.95,6.62,17.48,13.16,24.61,21.68,10.91,13.05,19.73,27.09,25.71,42.96,1.11,2.94,1.39,6,3.5,8.2,3.8.64,7.01.39,10.83,0,54.64-5.73,108.88-13.98,162.9-26.82,36.23-8.62,71.35-19.49,106.33-31.44,3.95-1.35,7.24-2.48,10.41-4.95,4.15-36.78.6-73.08-9.18-108.67-16.25-59.1-55.71-111.22-109.45-140.75-63.98-35.14-141.36-36.54-206.5-3.71-17.41,8.78-33.02,19.86-47.66,32.86-19.59,17.39-35.53,37.61-49.51,59.55-.59.93-2.02,1.56-2.7,1.49-.54-.05-1.5-.78-2-1.55-12.39-18.97-26.08-36.67-42.21-52.46-44.13-43.21-103.42-65.95-165.35-63.06-82.58,3.86-155.5,54.14-190.38,128.74-22.08,47.21-29.19,96.54-23.77,148.31l18.55,7.18c4.82,1.87,9.3,3.24,14.34,4.86,27.43,8.83,54.53,16.67,82.78,23.27,43.74,10.22,87.46,17.87,131.91,23.49,7.5.95,15.1,1.65,22.52,2.52l7.12.84c4.58.54,8.96,1.55,13.56-.25,9.7-29.62,27.85-55.52,53.93-72.88ZM541.87,575.57c22.62-10.24,41.01-28.76,50.89-51.04,21.38-48.18,1.51-104.84-44.25-129.87-49-26.79-109.93-8.5-136.8,40.63-14.45,26.42-16.55,58.97-4.67,87.19,21.76,51.65,82.12,76.95,134.82,53.09ZM187.57,626.08c.08,1.51.98,2.25,2.19,3.68,25.54,30.16,53.64,57.72,83.67,83.72,69.96,59.24,144.91,106.79,226.81,148.68,37.75-18.8,73.86-39.43,109.29-61.9,28.38-17.99,55.19-37.43,82.08-57.57,31.07-24.39,60.46-50.38,88.05-78.67,32.01-32.64,60.32-68.3,84.05-107.35,15.2-26.08,28.5-52.41,38.72-81.63-36.18,12.59-72.02,22.6-108.63,30.76-53.04,11.81-106.97,19.8-161.52,24.28-8.08,23.75-22.42,44-41.32,60.12-25.83,22.04-58.23,33.76-92.33,33.07-22.07-.07-43.04-4.98-62.34-15.22-31.68-16.72-56.45-44.11-67.81-78.05-48.17-3.95-95.45-10.59-142.63-20.26-43.25-8.77-84.84-20.14-127.54-34.55,20.08,54.91,50.5,104.7,87.05,149.11.53,1.27,1.35,1.62,2.21,1.78Z"/>
  <path class="cls-4" d="M541.87,575.57c22.62-10.24,41.01-28.76,50.89-51.04,21.38-48.18,1.51-104.84-44.25-129.87-49-26.79-109.93-8.5-136.8,40.63-14.45,26.42-16.55,58.97-4.67,87.19,21.76,51.65,82.12,76.95,134.82,53.09Z"/>
  <path class="cls-4" d="M187.57,626.08c.08,1.51.98,2.25,2.19,3.68,25.54,30.16,53.64,57.72,83.67,83.72,69.96,59.24,144.91,106.79,226.81,148.68,37.75-18.8,73.86-39.43,109.29-61.9,28.38-17.99,55.19-37.43,82.08-57.57,31.07-24.39,60.46-50.38,88.05-78.67,32.01-32.64,60.32-68.3,84.05-107.35,15.2-26.08,28.5-52.41,38.72-81.63-36.18,12.59-72.02,22.6-108.63,30.76-53.04,11.81-106.97,19.8-161.52,24.28-8.08,23.75-22.42,44-41.32,60.12-25.83,22.04-58.23,33.76-92.33,33.07-22.07-.07-43.04-4.98-62.34-15.22-31.68-16.72-56.45-44.11-67.81-78.05-48.17-3.95-95.45-10.59-142.63-20.26-43.25-8.77-84.84-20.14-127.54-34.55,20.08,54.91,50.5,104.7,87.05,149.11.53,1.27,1.35,1.62,2.21,1.78Z"/>
  <path class="cls-1" d="M548.95,539.84c-15.13,13.24-33.73,18.96-53.55,17.87-28.79-1.58-53.53-20.42-63.89-45.72-11.69-28.57-4.87-60.01,16.54-81.41,21.19-21.17,53.32-26.89,80.94-15.83,15.32,6.13,26.99,16.87,35.37,30.89,18.48,30.93,11.92,70.27-15.41,94.19ZM536.54,532.16c20.2-15.2,28.44-40.3,22.06-64.61-5.76-21.96-24.48-39.67-48.26-43.78-29.09-5.02-57.64,12.45-67.11,39.9s1.71,58.78,27.73,72.95c20.71,11.28,46.34,10.01,65.58-4.46Z"/>
  <path class="cls-3" d="M420.88,368.18c-26.08,17.35-44.22,43.26-53.93,72.88-4.6,1.8-8.99.79-13.56.25l-7.12-.84c-7.42-.87-15.01-1.58-22.52-2.52-44.45-5.62-88.17-13.26-131.91-23.49-28.25-6.6-55.35-14.44-82.78-23.27-5.04-1.62-9.53-3-14.34-4.86l-18.55-7.18c-5.42-51.76,1.69-101.1,23.77-148.31,34.89-74.6,107.8-124.88,190.38-128.74,61.93-2.89,121.22,19.85,165.35,63.06,16.13,15.8,29.83,33.5,42.21,52.46.5.77,1.46,1.49,2,1.55.67.07,2.1-.56,2.7-1.49,13.98-21.95,29.92-42.16,49.51-59.55,14.65-13,30.25-24.08,47.66-32.86,65.14-32.83,142.53-31.43,206.5,3.71,53.74,29.52,93.19,81.64,109.45,140.75,9.79,35.58,13.34,71.89,9.18,108.67-3.17,2.47-6.46,3.61-10.41,4.95-34.98,11.96-70.1,22.83-106.33,31.44-54.02,12.85-108.26,21.1-162.9,26.82-3.82.4-7.04.65-10.83,0-2.11-2.2-2.39-5.25-3.5-8.2-5.99-15.88-14.8-29.92-25.71-42.96-7.13-8.52-15.67-15.07-24.61-21.68-6.99-5.17-14.49-8.94-22.56-12.7-15-6.98-31.46-11.45-48.18-12.34l-17.67.03c-23.89.05-51.21,11.05-71.29,24.41Z"/>
</svg>